<svg width="320" height="72" viewBox="0 0 320 72" fill="none" xmlns="http://www.w3.org/2000/svg">
<path d="M87.7257 70.2935H77.4955V22.5499H87.7257V70.2935Z" fill="#0A1339"/>
<path d="M121.393 70.2935H99.2258V60.0632H121.393C122.576 60.0632 123.581 59.6479 124.412 58.8174C125.241 57.9883 125.656 56.9825 125.656 55.7985C125.656 54.6175 125.241 53.6132 124.412 52.7812C123.581 51.9535 122.576 51.5368 121.393 51.5368H112.867C108.866 51.5368 105.451 50.1216 102.619 47.2913C99.7884 44.4609 98.3717 41.0459 98.3717 37.0434C98.3717 33.0423 99.7884 29.6258 102.619 26.7955C105.451 23.9666 108.866 22.5499 112.867 22.5499H135.034V32.7801H112.867C111.684 32.7801 110.678 33.1969 109.848 34.026C109.019 34.8565 108.603 35.8623 108.603 37.0434C108.603 38.2259 109.019 39.2317 109.848 40.0622C110.678 40.8913 111.684 41.3066 112.867 41.3066H121.393C125.394 41.3066 128.809 42.7203 131.639 45.5521C134.471 48.3825 135.885 51.7975 135.885 55.7985C135.885 59.8011 134.471 63.2176 131.639 66.0479C128.809 68.8798 125.394 70.2935 121.393 70.2935Z" fill="#0A1339"/>
<path d="M156.765 70.2935H146.533V22.5499H156.765V70.2935Z" fill="#0A1339"/>
<path d="M192.136 32.7806C188.361 32.7806 185.144 34.1104 182.483 36.7714C179.825 39.4309 178.493 42.6471 178.493 46.4214C178.493 50.1957 179.825 53.4134 182.483 56.0729C185.144 58.7325 188.361 60.0622 192.136 60.0622C195.91 60.0622 199.126 58.7325 201.786 56.0729C204.445 53.4134 205.776 50.1957 205.776 46.4214C205.776 42.6471 204.445 39.4309 201.786 36.7714C199.126 34.1104 195.91 32.7806 192.136 32.7806ZM209.016 29.5409C213.677 34.2032 216.007 39.8286 216.007 46.4214C216.007 53.0158 213.677 58.6426 209.016 63.3035C204.354 67.9628 198.729 70.2939 192.136 70.2939C185.54 70.2939 179.914 67.9628 175.254 63.3035C170.594 58.6426 168.263 53.0158 168.263 46.4214C168.263 39.8286 170.594 34.2032 175.254 29.5409C179.914 24.8815 185.54 22.5504 192.136 22.5504C198.729 22.5504 204.354 24.8815 209.016 29.5409Z" fill="#0A1339"/>
<path d="M237.738 43.556V70.2927H227.508V22.4122L261.61 49.2874V22.5492H271.841V70.4297L237.738 43.556Z" fill="#0A1339"/>
<path d="M305.507 70.2935H283.339V60.0632H305.507C306.689 60.0632 307.695 59.6479 308.525 58.8174C309.354 57.9883 309.771 56.9825 309.771 55.7985C309.771 54.6175 309.354 53.6132 308.525 52.7812C307.695 51.9535 306.689 51.5368 305.507 51.5368H296.982C292.979 51.5368 289.564 50.1216 286.734 47.2913C283.903 44.4609 282.487 41.0459 282.487 37.0434C282.487 33.0423 283.903 29.6258 286.734 26.7955C289.564 23.9666 292.979 22.5499 296.982 22.5499H319.149V32.7801H296.982C295.799 32.7801 294.793 33.1969 293.963 34.026C293.134 34.8565 292.717 35.8623 292.717 37.0434C292.717 38.2259 293.134 39.2317 293.963 40.0622C294.793 40.8913 295.799 41.3066 296.982 41.3066H305.507C309.509 41.3066 312.924 42.7203 315.754 45.5521C318.585 48.3825 320 51.7975 320 55.7985C320 59.8011 318.585 63.2176 315.754 66.0479C312.924 68.8798 309.509 70.2935 305.507 70.2935Z" fill="#0A1339"/>
<path d="M64.6642 41.0537C64.6583 41.1818 64.7025 41.3555 64.6348 41.4321C64.3476 41.759 64.0339 42.0653 63.7188 42.3702C59.6308 46.3168 55.537 50.259 51.4505 54.2129C46.7028 58.806 41.9654 63.4094 37.2191 68.0054C35.9291 69.2527 34.6273 70.4882 33.2608 71.7959C32.9854 71.5765 32.7188 71.3968 32.4935 71.173C30.398 69.0789 28.3054 66.9819 26.2232 64.8746C20.452 59.0357 14.6897 53.185 8.91555 47.3491C6.21478 44.6233 3.5037 41.9078 0.766123 39.2188C0.197693 38.6592 -0.00994524 38.0775 0.000363853 37.2897C0.162347 25.2422 0.2993 13.1918 0.445091 1.14294C0.447873 0.81749 0.471594 0.490578 0.493688 0.000190735C0.779372 0.150398 0.948725 0.203407 1.06948 0.309433C1.43321 0.631935 1.78664 0.966225 2.12681 1.31081C4.96454 4.17652 7.80078 7.04222 10.6297 9.91381C14.4143 13.7573 18.1886 17.6067 21.9717 21.4517C24.2543 23.7726 26.5353 26.0919 28.8267 28.4039C30.3995 29.9914 31.987 31.5656 33.5671 33.1443C33.813 33.374 34.0427 33.6229 34.3063 33.8305C36.745 35.7508 39.3176 37.4796 42.0478 38.9493C45.4717 40.793 49.0545 42.2111 52.9466 42.7531C56.7268 43.2802 60.376 42.9342 63.8587 41.2849C64.109 41.1671 64.3947 41.1288 64.6642 41.0537" fill="#F4BE2B"/>
<path d="M37.6553 29.3605C37.9454 29.0409 38.2208 28.7052 38.5301 28.4033C42.4605 24.5819 46.3938 20.7619 50.3316 16.9479C55.0734 12.3607 59.8196 7.77644 64.5673 3.19514C65.4317 2.36164 66.3197 1.55318 67.1783 0.750607C67.5523 0.939098 67.4286 1.21448 67.4256 1.42653C67.2872 13.7022 67.1429 25.9779 66.9883 38.2536C66.9824 38.6144 67.1459 39.037 66.763 39.3301C66.1916 39.4125 65.6173 39.5863 65.0518 39.5657C62.9769 39.4891 60.9064 39.6673 58.8285 39.2697C56.6432 38.85 54.4681 38.4097 52.3947 37.6174C50.0974 36.7412 47.8561 35.734 45.6825 34.547C42.8728 33.0111 40.2206 31.2587 37.6553 29.3605Z" fill="#0A1339"/>
<path d="M37.6555 29.3605C40.2207 31.2587 42.8729 33.0111 45.6827 34.5471C47.8562 35.734 50.0976 36.7412 52.3948 37.6174C54.4683 38.4097 56.6433 38.85 58.8287 39.2697C60.9065 39.6673 62.977 39.4891 65.0519 39.5657C65.6174 39.5863 66.1917 39.4126 66.7631 39.3301C66.3994 39.9412 65.7853 40.2534 65.2154 40.6186C64.996 40.7305 64.6867 40.7217 64.6367 41.0545L64.6646 41.0517C64.3952 41.1283 64.1095 41.1681 63.8591 41.2859C60.3764 42.9352 56.7273 43.2798 52.9471 42.7541C49.055 42.2121 45.4721 40.794 42.0468 38.9503C39.3181 37.4806 36.7454 35.7518 34.3068 33.83C34.0432 33.6239 33.8134 33.375 33.5675 33.1438C34.7765 31.9907 35.9841 30.8362 37.1975 29.6876C37.333 29.5609 37.5023 29.4682 37.6555 29.3607" fill="#00010F"/>
<path d="M64.6369 41.055C64.687 40.7208 64.9962 40.7296 65.2156 40.6177C65.1479 41.0963 65.0581 41.164 64.6369 41.055Z" fill="#F4BE2B"/>
</svg>
