<?xml version="1.0" encoding="utf-8"?>
<!-- Generator: Adobe Illustrator 26.0.1, SVG Export Plug-In . SVG Version: 6.00 Build 0)  -->
<svg version="1.1" id="Capa_1" xmlns="http://www.w3.org/2000/svg" xmlns:xlink="http://www.w3.org/1999/xlink" x="0px" y="0px"
	 viewBox="0 0 252 506.3" style="enable-background:new 0 0 252 506.3;" xml:space="preserve">
<style type="text/css">
	.st0{fill:#FFFFFF;}
	.st1{fill:#DCDCE9;}
	.st2{fill:#2296F2;}
	.st3{opacity:0.35;}
	.st4{fill:none;}
	.st5{fill:none;stroke:#FFFFFF;stroke-width:0.191;stroke-miterlimit:10;}
	.st6{opacity:0.4;fill:#FFFFFF;enable-background:new    ;}
	.st7{font-family:'SegoeUI-Semibold';}
	.st8{font-size:9.02px;}
	.st9{fill:#FF5721;}
	.st10{font-family:'MyriadPro-Regular';}
	.st11{font-size:25px;}
	.st12{font-size:16px;}
</style>
<g id="black-mockup">
	<g id="phone">
		<path id="body" class="st0" d="M37.6,506.3c-19.5,0-35.2-15.8-35.2-35.2c0,0,0,0,0,0V186.8c-1.3,0-2.3-1.1-2.3-2.3l0,0v-31.7
			c0-1.3,1.1-2.3,2.3-2.3c0,0,0,0,0,0V141c-1.3,0-2.3-1.1-2.3-2.3v-31.7c0-1.3,1.1-2.3,2.3-2.4c0,0,0,0,0,0l0,0V86.9
			c-1.3,0-2.3-1-2.3-2.3V70.5c0-1.3,1.1-2.3,2.3-2.4c0,0,0,0,0,0l0,0V35.2C2.3,15.8,18.1,0,37.6,0h176.8c19.5,0,35.2,15.8,35.2,35.2
			v0v81.7c1.3,0,2.3,1.1,2.3,2.3l0,0v52.9c0,1.3-1.1,2.4-2.3,2.4l0,0v296.6c0,19.5-15.8,35.2-35.2,35.2c0,0,0,0,0,0H37.6z"/>
		<path id="camera" class="st1" d="M149.8,20c0-1.9,1.6-3.5,3.6-3.5c1.9,0,3.4,1.6,3.5,3.5l0,0c0,1.9-1.6,3.5-3.5,3.5l0,0
			C151.4,23.5,149.8,21.9,149.8,20z M112.2,21.7c-1,0-1.8-0.8-1.8-1.8l0,0c0-1,0.8-1.8,1.8-1.8h27.6c1,0,1.8,0.8,1.8,1.8
			c0,1-0.8,1.8-1.8,1.8L112.2,21.7z"/>
	</g>
</g>
<path id="Intersection_4" class="st2" d="M38.5,491.4c-2.3,0-4.6-0.3-6.8-1c-0.5-0.2-1-0.4-1.5-0.6c-8.7-3.7-14.4-12.2-14.3-21.6
	v-430c0-13,10.5-23.5,23.5-23.5c0,0,0,0,0,0h22.3c1.6,0,2.9,1.3,2.9,2.9v1.8c0,7.1,5.8,12.9,12.9,12.9c0,0,0,0,0,0h98.1
	c6.5,0,11.7-5.2,11.7-11.7c0,0,0,0,0,0v-2.9c0-1.6,1.3-2.9,2.9-2.9h22.3c10.4,0,19.6,6.9,22.5,16.8c0.5,1.9,0.7,3.8,0.7,5.8v431.3
	c0,12.6-10.2,22.9-22.9,22.9l0,0H38.5z"/>
<g id="Status_Bar">
	<g id="Battery">
		<g id="Border" class="st3">
			<path id="Rectangle_1" class="st4" d="M217.5,25.5h10c0.9,0,1.6,0.7,1.6,1.6v3.6c0,0.9-0.7,1.6-1.6,1.6h-10
				c-0.9,0-1.6-0.7-1.6-1.6v-3.6C215.9,26.2,216.6,25.5,217.5,25.5z"/>
			<path id="Rectangle_2" class="st5" d="M217.5,25.8h10c0.7,0,1.3,0.6,1.3,1.3v3.6c0,0.7-0.6,1.3-1.3,1.3h-10
				c-0.7,0-1.3-0.6-1.3-1.3v-3.6C216.2,26.3,216.8,25.8,217.5,25.8z"/>
		</g>
		<path id="Cap" class="st6" d="M229.7,27.7v2.4c0.7-0.3,1-1,0.7-1.7C230.3,28,230,27.8,229.7,27.7"/>
		<path id="Capacity" class="st0" d="M217.9,26.7h9.2c0.4,0,0.8,0.4,0.8,0.8v2.8c0,0.4-0.4,0.8-0.8,0.8h-9.2c-0.4,0-0.8-0.4-0.8-0.8
			v-2.8C217.1,27,217.5,26.7,217.9,26.7z"/>
	</g>
	<path id="Wifi" class="st0" d="M208.3,32.1c-0.1,0-0.1,0-0.1-0.1l-1.2-1.2c-0.1-0.1-0.1-0.2,0-0.3c0,0,0,0,0,0l0,0
		c0.8-0.6,1.9-0.6,2.7,0c0,0,0.1,0.1,0.1,0.1c0,0.1,0,0.1-0.1,0.1l-1.2,1.2C208.4,32,208.3,32.1,208.3,32.1z M210.4,29.9
		c0,0-0.1,0-0.1-0.1c-1.1-1-2.8-1-4,0c-0.1,0.1-0.2,0.1-0.3,0l-0.7-0.7c-0.1-0.1-0.1-0.2,0-0.3l0,0c1.7-1.5,4.2-1.5,5.9,0
		c0,0,0.1,0.1,0.1,0.1c0,0.1,0,0.1-0.1,0.1l-0.7,0.7C210.5,29.9,210.4,29.9,210.4,29.9z M212,28.3c0,0-0.1,0-0.1-0.1
		c-2-1.9-5.2-1.9-7.2,0c0,0-0.1,0.1-0.1,0.1c0,0-0.1,0-0.1-0.1l-0.7-0.7c-0.1-0.1-0.1-0.2,0-0.3c0,0,0,0,0,0l0,0
		c2.5-2.4,6.5-2.4,9.1,0c0,0,0.1,0.1,0.1,0.1c0,0.1,0,0.1-0.1,0.1l-0.7,0.7C212.1,28.3,212,28.3,212,28.3L212,28.3z"/>
	<path id="Cellular_Connection" class="st0" d="M200.1,32.1h-0.6c-0.3,0-0.6-0.3-0.6-0.6v-5.2c0-0.3,0.3-0.6,0.6-0.6h0.6
		c0.3,0,0.6,0.3,0.6,0.6v5.2C200.7,31.8,200.4,32.1,200.1,32.1z M197.2,32.1h-0.6c-0.3,0-0.6-0.3-0.6-0.6v-3.8
		c0-0.3,0.3-0.6,0.6-0.6h0.6c0.3,0,0.6,0.3,0.6,0.6v3.8C197.8,31.8,197.6,32.1,197.2,32.1z M194.4,32.1h-0.6c-0.3,0-0.6-0.3-0.6-0.6
		v-2.4c0-0.3,0.3-0.6,0.6-0.6h0.6c0.3,0,0.6,0.3,0.6,0.6v2.4C195,31.8,194.8,32.1,194.4,32.1z M191.6,32.1H191
		c-0.3,0-0.6-0.3-0.6-0.6v-1.2c0-0.3,0.3-0.6,0.6-0.6h0.6c0.3,0,0.6,0.3,0.6,0.6v1.2C192.2,31.8,192,32.1,191.6,32.1L191.6,32.1z"/>
	<g id="Time_Style">
		<g id="_Time">
			<text transform="matrix(1 0 0 1 34.683 33.274)" class="st0 st7 st8">9:41</text>
		</g>
	</g>
</g>
<image style="overflow:visible;" width="370" height="88" xlink:href="74522450.jpg"  transform="matrix(0.3719 0 0 0.3719 34.683 455.0302)">
</image>
<path class="st9" d="M180.5,392.9H70.8c-7.2,0-13-5.8-13-13v0c0-7.2,5.8-13,13-13h109.7c7.2,0,13,5.8,13,13v0
	C193.5,387.1,187.7,392.9,180.5,392.9z"/>
<path class="st9" d="M180.5,334H70.8c-7.2,0-13-5.8-13-13v0c0-7.2,5.8-13,13-13h109.7c7.2,0,13,5.8,13,13v0
	C193.5,328.2,187.7,334,180.5,334z"/>
<path class="st9" d="M180.5,275.1H70.8c-7.2,0-13-5.8-13-13v0c0-7.2,5.8-13,13-13h109.7c7.2,0,13,5.8,13,13v0
	C193.5,269.3,187.7,275.1,180.5,275.1z"/>
<text transform="matrix(1 0 0 1 56.1823 65.5533)" class="st0 st10 st11">AR Education</text>
<text transform="matrix(1 0 0 1 108.3995 267.9088)" class="st0 st10 st12">Inicio</text>
<text transform="matrix(1 0 0 1 97.4339 327.1115)" class="st0 st10 st12">Créditos</text>
<text transform="matrix(1 0 0 1 110.287 386.5212)" class="st0 st10 st12">Salir</text>
<image style="overflow:visible;" width="1789" height="1907" xlink:href="assets/img/74522454.png"  transform="matrix(6.750000e-02 0 0 6.750000e-02 71.955 101.484)">
</image>
</svg>
