<svg id="Group_2" data-name="Group 2" xmlns="http://www.w3.org/2000/svg" xmlns:xlink="http://www.w3.org/1999/xlink" viewBox="0 0 1366 769"><defs><style>.cls-1{fill:url(#Degradado_sin_nombre_69);}.cls-2,.cls-3,.cls-5,.cls-6,.cls-7,.cls-8{isolation:isolate;}.cls-2,.cls-8{opacity:0.3;}.cls-2{fill:url(#Degradado_sin_nombre_2);}.cls-3{opacity:0.14;fill:url(#Degradado_sin_nombre_3);}.cls-4{fill:url(#Degradado_sin_nombre_69-2);}.cls-5,.cls-6,.cls-7{fill:#fff;}.cls-5{opacity:0.2;}.cls-6{opacity:0.12;}.cls-7{opacity:0.13;}.cls-8{fill:url(#Degradado_sin_nombre_6);}</style><linearGradient id="Degradado_sin_nombre_69" x1="-274.43" y1="924.7" x2="-276.34" y2="923.41" gradientTransform="matrix(729.13, 0, 0, -769, 201601.29, 711170)" gradientUnits="userSpaceOnUse"><stop offset="0" stop-color="#0097ff"/><stop offset="0.19" stop-color="#2a91ff"/><stop offset="0.43" stop-color="#0071e9"/><stop offset="1" stop-color="#2615ff"/></linearGradient><linearGradient id="Degradado_sin_nombre_2" x1="-274.33" y1="924.78" x2="-275.31" y2="923.73" gradientTransform="matrix(547.93, 0, 0, -769, 151771.3, 711170)" gradientUnits="userSpaceOnUse"><stop offset="0" stop-color="#fff" stop-opacity="0.6"/><stop offset="0.69" stop-color="#fff" stop-opacity="0.05"/><stop offset="1" stop-color="#fff" stop-opacity="0"/></linearGradient><linearGradient id="Degradado_sin_nombre_3" x1="-274.01" y1="923.54" x2="-274.5" y2="922.14" gradientTransform="matrix(214.46, 0, 0, -112.27, 59055.44, 103862.23)" gradientUnits="userSpaceOnUse"><stop offset="0" stop-color="#a52eff"/><stop offset="0.5" stop-color="#6747f8"/><stop offset="0.65" stop-color="#6049f7"/><stop offset="0.86" stop-color="#4c51f4"/><stop offset="1" stop-color="#3d58f3"/></linearGradient><linearGradient id="Degradado_sin_nombre_69-2" x1="-273.03" y1="929.12" x2="-275.48" y2="921.57" gradientTransform="matrix(568.73, 0, 0, -131.22, 156692.94, 121864.92)" xlink:href="#Degradado_sin_nombre_69"/><linearGradient id="Degradado_sin_nombre_6" x1="-274.56" y1="923.95" x2="-273.56" y2="923.95" gradientTransform="matrix(191.35, 0, 0, -281.86, 53177.11, 260631.67)" xlink:href="#Degradado_sin_nombre_2"/></defs><path id="Path_2" data-name="Path 2" class="cls-1" d="M825.49,769H1366V0H787.67c-34,19.44-80.6,54.27-112.17,112.5-46.16,85.13-57.33,214.89,2,262,67.78,53.82,176-41.14,240,6,71.74,52.87,78.81,222.85-4,323C887.85,734.51,856.57,755.2,825.49,769Z"/><path id="Path_3" data-name="Path 3" class="cls-2" d="M1230,181c15.29,107.84,67.58,118.23,80,206,17.15,121.22-59.33,265-124,264-48-.72-26.67-130.62-132-228-77.4-71.56-197.52-104.33-228-70-5.27,5.93-7.57,13.54-7.93,22.16,36.81-9,72.15-14.77,99.43,5.34,51.19,37.73,69.44,135.08,45.62,224.14A993.77,993.77,0,0,1,1036,685c31.9,39.34,47.91,65.3,60.59,84H1366V0H1256C1223,45,1222.51,128.16,1230,181Z"/><path id="Path_4" data-name="Path 4" class="cls-3" d="M354.42,250.87c3.09-22-44.15-65.25-90.1-80-13-4.19-88.4-28.37-114.08,36.36-5.54,14-16.08,47-5.81,60.59,9.57,12.71,56.68,9.71,122.8-13.33C336.94,230.23,352.53,264.34,354.42,250.87Z"/><path id="Path_5" data-name="Path 5" class="cls-4" d="M302.5,640.5C188.14,626.27,61.9,670.11,0,718.08V769H568.73C482.87,728.31,422.31,655.41,302.5,640.5Z"/><circle id="Ellipse_1" data-name="Ellipse 1" class="cls-5" cx="1107.5" cy="86.5" r="11.5"/><circle id="Ellipse_2" data-name="Ellipse 2" class="cls-6" cx="752" cy="365" r="3"/><circle id="Ellipse_3" data-name="Ellipse 3" class="cls-5" cx="1126" cy="412" r="8"/><circle id="Ellipse_4" data-name="Ellipse 4" class="cls-7" cx="782" cy="42" r="7"/><path id="Path_7" data-name="Path 7" class="cls-8" d="M816,287c27.11-49.53,13.91-119.49-20-138-25.71-14-48.9,9.38-72-6-22.23-14.8-19-48.64-19.67-73.32A271.56,271.56,0,0,0,675.5,112.5C657,146.58,644.16,187.81,639.17,228A108,108,0,0,1,662,260c21,43.72,3.72,69.38,23,84C712.77,365.06,786.61,340.7,816,287Z"/></svg>