<?xml version="1.0" encoding="utf-8"?>
<!-- Generator: Adobe Illustrator 26.0.1, SVG Export Plug-In . SVG Version: 6.00 Build 0)  -->
<svg version="1.1" id="Capa_1" xmlns="http://www.w3.org/2000/svg" xmlns:xlink="http://www.w3.org/1999/xlink" x="0px" y="0px"
	 viewBox="0 0 1370.1 792" style="enable-background:new 0 0 1370.1 792;" xml:space="preserve">
<style type="text/css">
	.st0{fill:url(#Path_152_00000106117571885366662450000011923206352079048881_);}
	.st1{fill:url(#Path_196_00000152969416790600745950000017461662151442383510_);}
	.st2{fill:url(#Path_197_00000023988482172234062200000000209428762564850320_);}
	.st3{opacity:0.2;fill:#FFFFFF;enable-background:new    ;}
	.st4{opacity:0.2;}
	.st5{fill:none;}
	.st6{fill:#FFFFFF;}
</style>
<linearGradient id="Path_152_00000157293063746460708230000015488277856787099069_" gradientUnits="userSpaceOnUse" x1="-546.6349" y1="0.3359" x2="-547.6349" y2="1.3259" gradientTransform="matrix(1370.1333 0 0 792 750285.0625 -286)">
	<stop  offset="0" style="stop-color:#0029E9"/>
	<stop  offset="0.1239" style="stop-color:#042FEA"/>
	<stop  offset="0.2855" style="stop-color:#103FEC"/>
	<stop  offset="0.468" style="stop-color:#235AEF"/>
	<stop  offset="0.6658" style="stop-color:#3D80F4"/>
	<stop  offset="0.8736" style="stop-color:#5FAFFA"/>
	<stop  offset="1" style="stop-color:#76D0FE"/>
</linearGradient>
<path id="Path_152" style="fill:url(#Path_152_00000157293063746460708230000015488277856787099069_);" d="M0,792
	c0,0,138.5-112.9,310-121.4s208.5,80.6,376,87.6s159.5-115.4,308-125.4s188.5,92.5,286,85.6s90-47.8,90-47.8V0H0V792z"/>
<linearGradient id="Path_196_00000089563042746616601860000013841579145713351078_" gradientUnits="userSpaceOnUse" x1="-546.0229" y1="0.2429" x2="-547.0229" y2="1.233" gradientTransform="matrix(496.379 0 0 792 271467.6875 -286)">
	<stop  offset="0" style="stop-color:#FFFFFF;stop-opacity:0.161"/>
	<stop  offset="1" style="stop-color:#FFFFFF;stop-opacity:0"/>
</linearGradient>
<path id="Path_196" style="fill:url(#Path_196_00000089563042746616601860000013841579145713351078_);" d="M0,0h316
	c17.9,205.7,285.8,234.5,134,302c-162,72-212,170-168,270c19.4,44.1,33,76.1,42.1,98.1c-4.6,0.1-9.3,0.2-14.1,0.5
	C138.5,679.1,0,792,0,792V0z"/>
<linearGradient id="Path_197_00000016067762084478219310000011768279910685281711_" gradientUnits="userSpaceOnUse" x1="-546.2346" y1="0.3886" x2="-547.2346" y2="1.3787" gradientTransform="matrix(643.3043 0 0 613.953 352709.4375 -286.0262)">
	<stop  offset="0" style="stop-color:#FFFFFF;stop-opacity:0.2"/>
	<stop  offset="1" style="stop-color:#FFFFFF;stop-opacity:0"/>
</linearGradient>
<path id="Path_197" style="fill:url(#Path_197_00000016067762084478219310000011768279910685281711_);" d="M970,326
	c98-120-200-10-234-116c-25.5-79.6,5-151.3,48.3-210h232.2c51.8,55,162.6,101.1,297.5,92c27.6-1.9,45.6,3.2,56,13.8v83.7
	c-35,95.5-144.1,243.1-218,360.6c-28.6,45.5-59.2,64-88.1,64C970,613.9,895,417.8,970,326z"/>
<circle id="Ellipse_68" class="st3" cx="496.5" cy="569.5" r="13.5"/>
<circle id="Ellipse_69" class="st3" cx="337.5" cy="60.5" r="15.5"/>
<circle id="Ellipse_70" class="st3" cx="1155" cy="53" r="8"/>
<g id="Path_155" transform="matrix(0.259, 0.966, -0.966, 0.259, 73.396, 351.263)" class="st4">
	<path class="st5" d="M25.7,12.3c3.4-5.9,10.8-7.9,16.7-4.6c1.9,1.1,3.5,2.7,4.6,4.6l19.7,34.5c3.4,5.9,1.3,13.4-4.6,16.7
		c-1.9,1.1-3.9,1.6-6.1,1.6H16.6c-6.8,0-12.3-5.5-12.3-12.3c0-2.1,0.6-4.2,1.6-6.1L25.7,12.3z"/>
	<path class="st6" d="M36.3,14.1c-0.7,0-2.6,0.2-3.7,2.1L12.9,50.8c-1.1,1.9-0.4,3.6,0,4.3s1.5,2.1,3.7,2.1h39.5
		c2.2,0,3.3-1.5,3.7-2.1s1.1-2.3,0-4.3L40,16.2C38.9,14.3,37.1,14.1,36.3,14.1 M36.3,6.1c4.1,0,8.3,2.1,10.6,6.2l19.7,34.5
		C71.3,55,65.4,65.1,56,65.1H16.6C7.2,65.2,1.3,55,6,46.8l19.7-34.5C28.1,8.2,32.2,6.1,36.3,6.1z"/>
</g>
<path id="Path_195" class="st3" d="M1256.5,603c-6.2,0-12.2-2.5-16.6-6.9s-6.9-10.4-6.9-16.6c0-6.2,2.5-12.2,6.9-16.6
	c4.4-4.4,10.4-6.9,16.6-6.9s12.2,2.5,16.6,6.9s6.9,10.4,6.9,16.6c0,6.2-2.5,12.2-6.9,16.6C1268.7,600.5,1262.7,603,1256.5,603z
	 M1256.5,562.7c-9.3,0-16.8,7.5-16.8,16.8s7.5,16.8,16.8,16.8s16.8-7.5,16.8-16.8S1265.8,562.7,1256.5,562.7z"/>
</svg>
