<?xml version="1.0" encoding="utf-8"?>
<!-- Generator: Adobe Illustrator 26.0.1, SVG Export Plug-In . SVG Version: 6.00 Build 0)  -->
<svg version="1.1" id="Group_2" xmlns="http://www.w3.org/2000/svg" xmlns:xlink="http://www.w3.org/1999/xlink" x="0px" y="0px"
	 viewBox="0 0 1366 769" style="enable-background:new 0 0 1366 769;" xml:space="preserve">
<style type="text/css">
	.st0{fill:url(#Path_2_00000104687094789793536070000013384765408774748853_);}
	.st1{opacity:0.3;fill:url(#Path_3_00000049196472978822074070000011570942420999485094_);enable-background:new    ;}
	.st2{opacity:0.14;fill:url(#Path_4_00000049220065104108104020000005671639092633909639_);enable-background:new    ;}
	.st3{fill:url(#Path_5_00000083803883765707667190000001575496875256835760_);}
	.st4{opacity:0.2;fill:#FFFFFF;enable-background:new    ;}
	.st5{opacity:0.12;fill:#FFFFFF;enable-background:new    ;}
	.st6{opacity:0.13;fill:#FFFFFF;enable-background:new    ;}
	.st7{opacity:0.3;fill:url(#Path_7_00000145745712860395196140000013062606360905915828_);enable-background:new    ;}
</style>
<linearGradient id="Path_2_00000147916720539667547230000007272769023166545825_" gradientUnits="userSpaceOnUse" x1="-550.0502" y1="0.5033" x2="-551.9603" y2="1.7934" gradientTransform="matrix(729.13 0 0 769 402565.1875 -310)">
	<stop  offset="0" style="stop-color:#2615FF"/>
	<stop  offset="0.4356" style="stop-color:#0071E9"/>
	<stop  offset="0.7431" style="stop-color:#2A91FF"/>
	<stop  offset="1" style="stop-color:#0097FF"/>
</linearGradient>
<path id="Path_2" style="fill:url(#Path_2_00000147916720539667547230000007272769023166545825_);" d="M825.5,769H1366V0H787.7
	c-34,19.4-80.6,54.3-112.2,112.5c-46.2,85.1-57.3,214.9,2,262c67.8,53.8,176-41.1,240,6c71.7,52.9,78.8,222.8-4,323
	C887.8,734.5,856.6,755.2,825.5,769z"/>
<linearGradient id="Path_3_00000132085796658872281250000012141485460168661652_" gradientUnits="userSpaceOnUse" x1="-549.8245" y1="0.4232" x2="-550.8045" y2="1.4732" gradientTransform="matrix(547.93 0 0 769 302723.9688 -310)">
	<stop  offset="0" style="stop-color:#FFFFFF;stop-opacity:0.6"/>
	<stop  offset="0.69" style="stop-color:#FFFFFF;stop-opacity:5.000000e-02"/>
	<stop  offset="1" style="stop-color:#FFFFFF;stop-opacity:0"/>
</linearGradient>
<path id="Path_3" style="opacity:0.3;fill:url(#Path_3_00000132085796658872281250000012141485460168661652_);enable-background:new    ;" d="
	M1230,181c15.3,107.8,67.6,118.2,80,206c17.2,121.2-59.3,265-124,264c-48-0.7-26.7-130.6-132-228c-77.4-71.6-197.5-104.3-228-70
	c-5.3,5.9-7.6,13.5-7.9,22.2c36.8-9,72.2-14.8,99.4,5.3c51.2,37.7,69.4,135.1,45.6,224.1c25.7,25.4,50.1,52.3,72.9,80.4
	c31.9,39.3,47.9,65.3,60.6,84H1366V0h-110C1223,45,1222.5,128.2,1230,181z"/>
<linearGradient id="Path_4_00000173145243635728613880000009866285334424356743_" gradientUnits="userSpaceOnUse" x1="-548.7414" y1="2.8342" x2="-549.2314" y2="4.2342" gradientTransform="matrix(214.46 0 0 112.27 117970.4062 -142.5203)">
	<stop  offset="0" style="stop-color:#A52EFF"/>
	<stop  offset="0.5" style="stop-color:#6747F8"/>
	<stop  offset="0.65" style="stop-color:#6049F7"/>
	<stop  offset="0.86" style="stop-color:#4C51F4"/>
	<stop  offset="1" style="stop-color:#3D58F3"/>
</linearGradient>
<path id="Path_4" style="opacity:0.14;fill:url(#Path_4_00000173145243635728613880000009866285334424356743_);enable-background:new    ;" d="
	M354.4,250.9c3.1-22-44.1-65.2-90.1-80c-13-4.2-88.4-28.4-114.1,36.4c-5.5,14-16.1,47-5.8,60.6c9.6,12.7,56.7,9.7,122.8-13.3
	C336.9,230.2,352.5,264.3,354.4,250.9z"/>
<linearGradient id="Path_5_00000072963729195541010830000013114647899122807433_" gradientUnits="userSpaceOnUse" x1="-548.5549" y1="-2.9421" x2="-551.0049" y2="4.6079" gradientTransform="matrix(568.73 0 0 131.22 313386.4062 331.4207)">
	<stop  offset="0" style="stop-color:#0097FF"/>
	<stop  offset="0.19" style="stop-color:#2A91FF"/>
	<stop  offset="0.43" style="stop-color:#0071E9"/>
	<stop  offset="1" style="stop-color:#2615FF"/>
</linearGradient>
<path id="Path_5" style="fill:url(#Path_5_00000072963729195541010830000013114647899122807433_);" d="M302.5,640.5
	C188.1,626.3,61.9,670.1,0,718.1V769h568.7C482.9,728.3,422.3,655.4,302.5,640.5z"/>
<circle id="Ellipse_1" class="st4" cx="1107.5" cy="86.5" r="11.5"/>
<circle id="Ellipse_2" class="st5" cx="752" cy="365" r="3"/>
<circle id="Ellipse_3" class="st4" cx="1126" cy="412" r="8"/>
<circle id="Ellipse_4" class="st6" cx="782" cy="42" r="7"/>
<linearGradient id="Path_7_00000178917959016051913320000011994524807891494307_" gradientUnits="userSpaceOnUse" x1="-549.1176" y1="1.6122" x2="-548.1176" y2="1.6122" gradientTransform="matrix(191.35 0 0 281.86 105713.7109 -243.8146)">
	<stop  offset="0" style="stop-color:#FFFFFF;stop-opacity:0.6"/>
	<stop  offset="0.69" style="stop-color:#FFFFFF;stop-opacity:5.000000e-02"/>
	<stop  offset="1" style="stop-color:#FFFFFF;stop-opacity:0"/>
</linearGradient>
<path id="Path_7" style="opacity:0.3;fill:url(#Path_7_00000178917959016051913320000011994524807891494307_);enable-background:new    ;" d="
	M816,287c27.1-49.5,13.9-119.5-20-138c-25.7-14-48.9,9.4-72-6c-22.2-14.8-19-48.6-19.7-73.3c-10.9,13.3-20.6,27.7-28.8,42.8
	c-18.5,34.1-31.3,75.3-36.3,115.5c9.5,9.2,17.2,20,22.8,32c21,43.7,3.7,69.4,23,84C712.8,365.1,786.6,340.7,816,287z"/>
</svg>
