<?xml version="1.0" encoding="utf-8"?>
<!-- Generator: Adobe Illustrator 26.0.1, SVG Export Plug-In . SVG Version: 6.00 Build 0)  -->
<svg version="1.1" id="Group_202" xmlns="http://www.w3.org/2000/svg" xmlns:xlink="http://www.w3.org/1999/xlink" x="0px" y="0px"
	 viewBox="0 0 1367 462" style="enable-background:new 0 0 1367 462;" xml:space="preserve">
<style type="text/css">
	.st0{fill:url(#Path_152_00000108999960585343848240000000646380110866938002_);}
	.st1{fill:url(#Path_351_00000157991281206109383850000015736726750719493279_);}
	.st2{opacity:0.2;fill:#FFFFFF;enable-background:new    ;}
	.st3{fill:url(#Path_355_00000026883671427361368450000007356998472217745815_);}
	.st4{opacity:0.2;}
	.st5{fill:none;}
	.st6{fill:#FFFFFF;}
	.st7{opacity:0.16;fill:#FFFFFF;enable-background:new    ;}
</style>
<linearGradient id="Path_152_00000044164709760566132690000010526429518026641062_" gradientUnits="userSpaceOnUse" x1="-549.6504" y1="1.2893" x2="-550.6504" y2="2.2794" gradientTransform="matrix(1367.0249 0 0 462 752679.6875 -616)">
	<stop  offset="0" style="stop-color:#1915FF"/>
	<stop  offset="1" style="stop-color:#7CD8FF"/>
</linearGradient>
<path id="Path_152" style="fill:url(#Path_152_00000044164709760566132690000010526429518026641062_);" d="M0,462
	c0,0,138.5-112.9,310-121.4s208.5,80.6,376,87.6s159.5-115.4,308-125.4s188.5,92.5,286,85.6s86.7-43.7,86.7-43.7V0.7L0,0V462z"/>
<linearGradient id="Path_351_00000119821296700424253560000015887335824852072638_" gradientUnits="userSpaceOnUse" x1="-548.6824" y1="1.7991" x2="-549.2836" y2="2.547" gradientTransform="matrix(389.1062 0 0 379.6 214824.4375 -615.4235)">
	<stop  offset="0" style="stop-color:#FFFFFF;stop-opacity:0"/>
	<stop  offset="1" style="stop-color:#FFFFFF;stop-opacity:0.2"/>
</linearGradient>
<path id="Path_351" style="fill:url(#Path_351_00000119821296700424253560000015887335824852072638_);" d="M1273.3,188
	c-41.3-68-80,121.3-138.7,125.3c-29.5,2-33.7-20.6-42.5-43.3c-8.7-22.3-21.8-44.7-68.2-43.4c-93.3,2.7-32-141.3,69.3-145.3
	c67.5-2.7,70.5-49.7,65-80.8l208.3,0.1v344c0,0,6.6,22.4-36.8,35.5C1321.7,330.9,1303,236.8,1273.3,188z"/>
<path id="Path_195" class="st2" d="M78.5,319c-6.2,0-12.2-2.5-16.6-6.9S55,301.7,55,295.5s2.5-12.2,6.9-16.6s10.4-6.9,16.6-6.9
	s12.2,2.5,16.6,6.9s6.9,10.4,6.9,16.6s-2.5,12.2-6.9,16.6S84.7,319,78.5,319z M78.5,278.7c-9.3,0-16.8,7.5-16.8,16.8
	s7.5,16.8,16.8,16.8s16.8-7.5,16.8-16.8S87.8,278.7,78.5,278.7z"/>
<linearGradient id="Path_355_00000154389174807142473960000007748864963723433099_" gradientUnits="userSpaceOnUse" x1="-549.9944" y1="1.9197" x2="-549.1714" y2="2.6517" gradientTransform="matrix(597.5161 0 0 344.147 328680.375 -615.9865)">
	<stop  offset="0" style="stop-color:#FFFFFF;stop-opacity:0"/>
	<stop  offset="1" style="stop-color:#FFFFFF;stop-opacity:0.2"/>
</linearGradient>
<path id="Path_355" style="fill:url(#Path_355_00000154389174807142473960000007748864963723433099_);" d="M0,344.1V0h5.7
	C83.3,51.7,94.3,159.2,190,104C242.7,73.6,306.8,31.8,366.2,0.2l231.3,0.1C561.4,23.5,502.2,49.2,512,104c14,78,60,182-30,184
	c-38.4,0.9-71-20.5-104.2-41.8c-44.7-28.7-90.7-57.4-153.8-32.2C129.5,251.8,41,344.1,0,344.1L0,344.1z"/>
<path id="Path_342" class="st2" d="M971.6,99c-3.1,0-6-1.2-8.2-3.4c-2.2-2.2-3.4-5.1-3.4-8.2s1.2-6,3.4-8.2s5.1-3.4,8.2-3.4
	c3.1,0,6,1.2,8.2,3.4c2.2,2.2,3.4,5.1,3.4,8.2s-1.2,6-3.4,8.2C977.7,97.8,974.7,99,971.6,99z M971.6,79.1c-4.6,0-8.3,3.7-8.3,8.3
	c0,4.6,3.7,8.3,8.3,8.3s8.3-3.7,8.3-8.3C979.9,82.8,976.2,79.1,971.6,79.1z"/>
<circle id="Ellipse_80" class="st2" cx="425.5" cy="120.5" r="13.5"/>
<circle id="Ellipse_81" class="st2" cx="1215.5" cy="303.5" r="18.5"/>
<circle id="Ellipse_68" class="st2" cx="622.5" cy="375.5" r="8.5"/>
<g id="Path_343" transform="matrix(0.259, 0.966, -0.966, 0.259, 710.181, 49.242)" class="st4">
	<path class="st5" d="M18.6,10.2c2.2-3.9,7.2-5.3,11.1-3c1.3,0.7,2.3,1.8,3,3l13.1,23c2.2,3.9,0.9,8.9-3,11.1
		c-1.2,0.7-2.6,1.1-4.1,1.1H12.5c-4.5,0-8.2-3.7-8.2-8.2c0-1.4,0.4-2.8,1.1-4.1L18.6,10.2z"/>
	<path class="st6" d="M25.7,11.1c-0.6,0-1.9,0.2-2.7,1.6l-13.1,23c-0.8,1.4-0.3,2.7,0,3.2s1.1,1.6,2.7,1.6h26.3
		c1.6,0,2.5-1.1,2.7-1.6c0.3-0.5,0.8-1.7,0-3.2l-13.1-23C27.6,11.2,26.2,11.1,25.7,11.1 M25.7,6.1c2.8,0,5.5,1.4,7.1,4.1l13.1,23
		c3.1,5.4-0.8,12.2-7.1,12.2H12.5c-6.3,0-10.2-6.8-7.1-12.2l13.1-23C20.1,7.5,22.9,6.1,25.7,6.1z"/>
</g>
<g id="Path_344" transform="matrix(-0.839, 0.545, -0.545, -0.839, 181.642, 48.728)" class="st4">
	<path class="st5" d="M17.1,9.8c2-3.5,6.5-4.7,10-2.7c1.1,0.6,2.1,1.6,2.7,2.7l11.8,20.6c2,3.5,0.8,8-2.7,10c-1.1,0.6-2.4,1-3.6,1
		H11.7c-4,0-7.3-3.3-7.3-7.3c0-1.3,0.3-2.5,1-3.6L17.1,9.8z"/>
	<path class="st6" d="M23.4,10.1c-0.6,0-2,0.2-2.9,1.7L8.8,32.4c-0.9,1.5-0.3,2.8,0,3.3s1.1,1.7,2.9,1.7h23.6c1.7,0,2.6-1.2,2.9-1.7
		c0.3-0.5,0.9-1.8,0-3.3L26.3,11.8C25.5,10.3,24,10.1,23.4,10.1 M23.4,6.1c2.5,0,5,1.2,6.4,3.7l11.8,20.6c2.8,4.9-0.7,11-6.4,11
		H11.7c-5.6,0-9.1-6.1-6.4-11L17.1,9.8C18.5,7.3,21,6.1,23.4,6.1z"/>
</g>
<path id="Path_349" class="st7" d="M766.7,357.3c49.3-36,85.3-4,98.7-49.3c11.3-38.5,88.2-26,105.3-2.5
	c-99.1,16.3-120.5,88.3-204.4,113.9C750.6,402.5,738.2,378.1,766.7,357.3z"/>
<circle id="Ellipse_82" class="st2" cx="295.5" cy="294.5" r="9.5"/>
</svg>
